<svg id="Ebene_1" data-name="Ebene 1" xmlns="http://www.w3.org/2000/svg" viewBox="0 0 1000 1000"><defs><style>.cls-1{fill:#0a2eb3;}.cls-2{fill:#fbdd00;}</style></defs><title>euro_flag</title><rect class="cls-1" width="1000" height="1002.66"/><path class="cls-2" d="M790.66,245.33q4.56,13.91,9.12,27.8C803.65,285,803.63,285,816.28,285h30.94c-1.55,1.4-2.38,2.28-3.34,3-9.41,6.87-18.79,13.8-28.32,20.51-2.59,1.83-3.3,3.47-2.22,6.6,3.75,10.86,7.16,21.83,10.69,32.75.39,1.23.69,2.48,1.38,5-8.32-6-15.63-11.4-23-16.67-4-2.89-8.2-7.77-12.33-7.79s-8.28,4.85-12.32,7.72c-7.43,5.29-14.79,10.69-23.42,16.94,3.15-9.69,5.95-18,8.53-26.31,1.61-5.2,5.06-11.18,3.69-15.55-1.3-4.13-7.8-6.67-12.07-9.82-6.7-4.94-13.46-9.81-20.18-14.72a9.51,9.51,0,0,1-1.07-1.22c1.49-.16,2.64-.38,3.78-.38,11.5,0,23-.18,34.48.06,3.91.09,5.53-1.43,6.62-5,3.55-11.6,7.4-23.1,11.14-34.64Z"/><path class="cls-2" d="M393.85,279.93c-9.69-7-19.57-13.8-29-21.19-4.09-3.22-6.78-2.87-10.68.15a333.12,333.12,0,0,1-29.75,20.56c3.44-10.54,7-21.06,10.28-31.64,3.21-10.23,4.22-7.66-4.34-14-7.64-5.62-15.36-11.15-23-16.74-1.41-1-2.75-2.17-5.2-4.13,12.79,0,24.21,0,35.63,0,9.85,0,7.85.85,10.61-7.49,3.59-10.88,7.15-21.77,11.2-34.13,2.28,6.79,4.12,12.21,5.9,17.65,2.13,6.48,4.4,12.93,6.23,19.5,1,3.55,2.87,4.6,6.42,4.55,12.46-.18,24.92-.07,38.53-.07-1.67,1.53-2.48,2.42-3.44,3.12-9.4,6.89-18.76,13.84-28.28,20.56-2.5,1.77-3,3.42-2,6.26,4.07,12.1,7.93,24.28,11.87,36.43Z"/><path class="cls-2" d="M444.75,785c12.88,0,25-.18,37.14.1,4.4.1,6.43-1.25,7.71-5.6a338.68,338.68,0,0,1,12.18-34.64c3,9.2,6.14,18.38,9.08,27.61,4,12.5,3.91,12.52,17,12.52,9.92,0,19.83,0,30,1-8.55,6.24-17.16,12.4-25.63,18.73-10.74,8-9.37,4.2-5.54,16.51,2.62,8.43,5.44,16.79,8.13,25.19a8.36,8.36,0,0,1,.18,5.19c-7.1-5.15-14.18-10.33-21.32-15.43-4.05-2.89-8.2-7.81-12.32-7.83s-8.29,4.87-12.34,7.75c-7.39,5.24-14.71,10.59-22.89,15.25,3.48-10.7,6.93-21.43,10.47-32.11,2.67-8.06,2.73-8.05-4.25-13.14q-13.31-9.72-26.63-19.44C445.5,786.46,445.41,786.09,444.75,785Z"/><path class="cls-2" d="M155.65,386.67c4.23,13,8.17,24.48,11.67,36.11,1.24,4.1,3.29,5.36,7.46,5.25,10.65-.28,21.32-.1,32-.1a10.14,10.14,0,0,1,5.16,1c-4.34,3.18-8.68,6.38-13,9.55-5.38,3.93-10.6,8.11-16.21,11.68-4,2.56-5.06,5.07-3.33,9.74,3.71,10,6.74,20.21,10,30.34.44,1.36.81,2.75,1.61,5.48-6.45-4.63-11.81-8.47-17.15-12.32-5-3.6-10.1-7.08-14.94-10.89-2.54-2-4.39-1.92-7,0-10.12,7.56-20.41,14.9-31.64,23,.55-2.34.76-3.65,1.17-4.9,3.49-10.77,6.92-21.56,10.59-32.27,1.1-3.18.62-5.08-2.24-7.08-10.34-7.26-20.48-14.79-31.82-23,2.79-.16,4.31-.33,5.83-.33,11,0,22-.15,33,.1,3.86.08,5.59-1.28,6.69-4.92,3.23-10.68,6.82-21.24,10.3-31.84C154.2,390.05,154.75,388.89,155.65,386.67Z"/><path class="cls-2" d="M643.06,171.59c3.49,10.64,6.62,20,9.66,29.48C656.56,213,656.53,213,669.2,213h29.38l1.14,1.53a27.65,27.65,0,0,0-3.28,1.74c-9.32,6.73-18.54,13.6-28,20.21-2.62,1.85-3.25,3.5-2.19,6.62,4.08,11.95,7.85,24,11,36.79-1.38-.95-2.78-1.88-4.14-2.86-8.91-6.46-17.88-12.83-26.66-19.45-2.6-2-4.45-1.89-7,0-8.94,6.69-18,13.18-27.06,19.73-1.29.94-2.66,1.78-5,3.31,3.88-12,7.4-22.85,10.93-33.74,2.53-7.83,2.54-7.83-4.19-12.73-9.26-6.74-18.52-13.47-27.53-21.15,12.23,0,24.46-.27,36.68.13,4.74.15,6.71-1.36,8-5.82,2.9-10.08,6.38-20,9.64-30C641.43,175.83,642,174.36,643.06,171.59Z"/><path class="cls-2" d="M156.61,285c12.31,0,24.62-.2,36.92.1,4.3.11,6.12-1.41,7.33-5.42,3.49-11.62,7.39-23.12,11.56-36,1.05,2.64,1.75,4.15,2.26,5.72,3.32,10.13,6.78,20.22,9.79,30.44,1.21,4.11,3.26,5.37,7.45,5.25,10.82-.29,21.66-.1,32.49-.08,1.42,0,2.85.15,5.69.31-8.94,6.52-16.78,12.3-24.69,18-10.65,7.62-10.68,7.58-6.69,20,3,9.33,6,18.66,9.45,29.35-2.54-1.69-4.12-2.65-5.61-3.74-8.76-6.36-17.57-12.65-26.2-19.2-2.74-2.08-4.67-2-7.41,0-10.11,7.57-20.41,14.89-31.49,21.82q2.92-9.07,5.87-18.14c1.9-5.86,3.6-11.81,5.82-17.54,1.42-3.69.37-5.72-2.68-7.87-10.2-7.16-20.21-14.58-30.3-21.9Z"/><path class="cls-2" d="M903.72,429c-9.81,7.11-19.52,14.38-29.5,21.25-3.91,2.69-4.88,5.2-3.19,9.83a294.62,294.62,0,0,1,10.2,34.38c-1.41-.89-2.88-1.72-4.23-2.69-8.79-6.33-17.65-12.55-26.26-19.11-2.84-2.17-4.71-1.91-7.38.1-8.79,6.61-17.76,13-26.67,19.42-1.27.92-2.61,1.74-5.08,3.38,3.93-12.18,7.48-23.05,10.92-33.95,2.81-8.88,3.79-6.53-4-12.28s-15.89-11.56-23.82-17.36c-1.29-.94-2.5-2-5-4h17.2c7.34,0,14.67-.16,22,.08,3.45.11,5.06-1.15,6-4.39,3.22-10.51,6.7-20.94,10.1-31.39.49-1.52,1.13-3,2.17-5.73,3.73,11.44,7,21.67,10.41,31.85,3.87,11.53,1.41,9.41,13.19,9.56,10.81.14,21.63,0,32.45,0Z"/><path class="cls-2" d="M557.66,277c-9.94,7.25-19.77,14.65-29.88,21.66-3.52,2.44-4.15,4.72-2.76,8.68,4.05,11.58,7.69,23.3,12,36.46-9.39-6.76-17.58-12.62-25.73-18.53-9.95-7.22-9.94-7.24-19.83-.09l-25.77,18.59c3.55-11,6.6-20.58,9.77-30.15,3.87-11.68,3.91-11.66-6.12-18.91-8.07-5.84-16.13-11.71-25.52-18.53,3.06-.14,4.71-.28,6.36-.28,11,0,22-.11,33,.09,3.43.06,5-1.11,6-4.4,3.14-10.36,6.59-20.62,9.94-30.9.55-1.69,1.25-3.32,2.35-6.24,3.89,12,7.33,22.68,10.88,33.36,3.18,9.57,1.34,8,11.2,8.09,11.28.09,22.57,0,33.85,0Z"/><path class="cls-2" d="M738.2,642.08c3.89-12,7.67-24.05,11.74-36,1.12-3.26.42-5.13-2.33-7.06-9-6.32-17.83-12.85-26.71-19.32-1.3-.94-2.52-2-4.95-3.9h30.64c13.25,0,13.23,0,17.32-12.8a258.42,258.42,0,0,1,10-27.36c3.44,10.53,6.85,21.07,10.34,31.58s1.54,8.41,11.86,8.55c11.11.14,22.22,0,34.95,0-5.41,4-9.6,7.11-13.81,10.19-6.05,4.42-12,9-18.22,13.16-2.91,2-3.34,3.89-2.25,7.08,4.08,11.94,7.9,24,12.31,37.43-5.94-4.25-10.72-7.64-15.48-11.08-5.53-4-11.13-7.92-16.51-12.11-2.69-2.1-4.71-2.06-7.46,0C759.5,628,749.22,635.36,739,642.77Z"/><path class="cls-2" d="M263.86,642.9c-7.43-5.36-14.73-10.74-22.16-15.95-4.17-2.93-8.53-7.7-12.82-7.73-4.08,0-8.22,5-12.28,7.9-7,5-14,10.12-21.07,15.16-.23.16-.61.11-1.52.25,3.51-10.8,7-21.31,10.35-31.87s4.15-7.79-4.6-14.26S182,583.48,172.09,576.26c2.48-.22,3.79-.44,5.11-.44,11.15,0,22.32-.18,33.47.07,3.88.09,5.52-1.27,6.62-4.92,3.1-10.36,6.61-20.6,10-30.88.5-1.51,1.14-3,2.18-5.68,4.16,12.79,8.08,24.27,11.57,35.87,1.25,4.16,3.1,5.77,7.65,5.64a358.2,358.2,0,0,1,37.1.81c-7.86,5.76-15.69,11.54-23.56,17.27-10.75,7.83-10.77,7.82-6.75,20.41q4.41,13.79,8.83,27.57C264.33,642.09,264.17,642.26,263.86,642.9Z"/><path class="cls-2" d="M415.74,687.88c-9.81,7.14-19.54,14.41-29.49,21.36-3.33,2.33-4.46,4.36-2.95,8.56,4.16,11.59,7.71,23.39,11.86,36.24-2.07-1.3-3.39-2-4.61-2.9-9-6.54-18.15-13-27.05-19.72-2.87-2.16-4.87-2.23-7.81,0C345.63,739,335.32,746.32,324,754.56c4.21-12.94,7.77-24.66,11.88-36.18,1.58-4.43.73-6.83-3.14-9.43-8.57-5.75-16.78-12-25.12-18.13-1.43-1-2.78-2.18-5.2-4.09,13.06,0,24.82-.31,36.56.14,5.5.21,7.87-1.65,9.35-6.87,3.24-11.36,7.17-22.51,11.11-34.67.78,1.83,1.31,2.88,1.67,4,3.49,10.59,7.16,21.14,10.33,31.83,1.26,4.21,3.17,5.81,7.67,5.7,12.11-.31,24.23-.11,36.35-.11Z"/><path class="cls-2" d="M607.52,754c3.3-10.27,6.12-19.09,9-27.9,4.35-13.38,4.37-13.39-6.84-21.62-6.44-4.74-12.94-9.39-19.4-14.11-1.14-.84-2.18-1.82-4.35-3.64h28.58c14.92,0,14.9,0,19.41-14.1,2.79-8.7,5.63-17.38,8.81-27.2,1,2.27,1.67,3.5,2.1,4.81,3.42,10.45,6.92,20.87,10.09,31.39,1.15,3.79,2.91,5.3,7,5.19,10.65-.3,21.32-.1,32-.1h4.79l.42,1.07c-3.54,2.6-7.06,5.23-10.61,7.81-6.19,4.51-12.24,9.25-18.67,13.39-4,2.55-4.67,5.07-3.07,9.45,3.61,9.84,6.67,19.88,9.93,29.86.45,1.39.74,2.84,1.44,5.55-2.46-1.61-4-2.56-5.54-3.64-8.77-6.35-17.6-12.63-26.24-19.15-2.6-2-4.4-1.84-7,.09-8.78,6.61-17.74,13-26.64,19.43C611.5,751.5,610.13,752.31,607.52,754Z"/></svg>