<?xml version="1.0" encoding="UTF-8"?>
<svg width="56px" height="132px" viewBox="0 0 56 132" version="1.1" xmlns="http://www.w3.org/2000/svg" xmlns:xlink="http://www.w3.org/1999/xlink">
    <!-- Generator: Sketch 54.1 (76490) - https://sketchapp.com -->
    <title>Artboard</title>
    <desc>Created with Sketch.</desc>
    <g id="Artboard" stroke="none" stroke-width="1" fill="none" fill-rule="evenodd">
        <g id="wäscheklammer-02" transform="translate(13.172265, 6.079018)" fill-rule="nonzero">
            <path d="M15.6429366,32.9151289 L21.3871251,3.62714814 C21.4887359,3.10569092 21.6125742,2.58743282 21.704659,2.05957735 C21.9174067,0.6167724 22.6572607,-0.179809492 24.1750728,0.0345318205 C25.4452085,0.204085396 25.9627888,0.994269039 25.9469121,2.23552918 C25.889756,6.39439046 26.2168159,10.5532517 25.7182877,14.712113 C25.6785549,15.0303703 25.6626333,15.3511872 25.6706576,15.6718502 C25.8611779,22.9242645 25.3944031,30.1638822 25.2800909,37.4066991 C25.1308499,46.9400888 24.8768228,56.4702794 24.6196203,66.00047 C24.5211848,69.6698653 24.4640287,73.3584553 24.2544563,77.0150541 C24.2227029,77.5717017 24.1369688,78.0707651 23.708298,78.45466 C22.9144632,78.9889137 22.238116,78.5218416 21.695133,78.3075002 C22.1047517,78.6434083 22.8319044,78.6434083 23.4637969,78.9025373 C24.3655932,79.564756 24.3370151,80.5564845 24.3624178,81.5098234 C24.4418013,84.2290789 24.2576317,86.9483343 24.1179167,89.6515942 C23.9400977,93.1066482 23.9940785,96.5808969 24.0893387,100.042349 C24.2068262,104.418751 23.6606679,108.76956 23.7241747,113.139563 C23.7241747,113.897755 23.6416159,114.636753 23.0192494,115.183803 C23.0033727,115.766044 22.9716193,116.348284 22.968444,116.930525 C22.968444,118.053418 23.0541781,119.265886 21.6729056,119.681772 C20.224951,120.116853 18.8373278,120.321597 17.687855,118.834004 C16.5955383,117.416792 15.2968246,116.162735 14.0901958,114.835099 C13.0328078,114.473598 12.1056088,114.694337 11.4229109,115.577296 C10.965662,116.175532 10.2829641,116.197926 9.69552639,116.47305 C8.98425043,117.260035 8.2189937,118.005431 7.57757519,118.8468 C6.80279245,119.860923 5.85971672,120.12645 4.64673718,119.928104 C2.83996921,119.624188 2.37954504,119.173111 2.34461631,117.333615 C2.13504392,105.404081 1.94452357,93.4745474 1.70954848,81.5450138 C1.68414577,80.1789878 1.9381729,79.100883 3.37660152,78.6658021 C4.24346911,78.4098722 4.23711843,77.76045 4.2593458,77.0310497 C4.28474851,76.1800827 3.76716824,76.160888 3.16067846,76.0393213 C2.03343307,75.8089844 1.70002246,74.9676147 1.68097043,73.8959082 C1.63334034,71.3366089 1.54125551,68.7773097 1.48092406,66.2180104 C0.98768805,45.0803314 0.495510485,23.9415859 0.00439136565,2.80177413 C-0.0464140605,0.562387291 0.321925279,0.133704666 2.25253147,0.0217353242 C3.56394653,0.220081016 4.15773495,0.927087434 4.41493742,2.30910903 C6.87688369,15.312482 9.32295327,28.319054 11.7531462,41.3288252 C11.7998116,41.5915586 11.8623767,41.8511719 11.9404912,42.1062124 C12.032576,42.4037309 12.0802061,42.8068205 12.4453701,42.8388118 C12.9343723,42.8835995 13.0169311,42.4101291 13.0804379,42.071022 C13.502758,39.8316352 13.9250781,37.5762527 14.3950283,35.3528615 C14.5918993,34.437912 14.6109514,33.3981967 15.6429366,32.9151289 Z" id="Path" fill="#333234"></path>
            <path d="M23.4115766,114.575503 C23.6019111,103.476171 23.7944333,92.3778995 23.9891432,81.2806886 C23.9891432,80.2592191 24.035086,79.2472961 23.0604424,78.5535878 C22.8668263,78.2162801 23.1851443,78.1303621 23.3590706,77.9744368 C23.5559683,77.656222 23.9300739,77.3380072 23.9235107,77.0452496 C23.8381883,73.077111 24.176196,69.1185189 24.2680816,65.1567446 C24.6487505,48.6732178 25.0283256,32.1907518 25.4068067,15.7093464 C25.5085372,11.3116179 25.6102677,6.91070715 25.7349695,2.51297858 C25.7645042,1.48832692 25.5676065,0.603689765 24.5995261,0.0563603047 C30.9790118,-0.179118649 30.0043681,0.123185413 29.8665397,4.95368612 C29.6204176,13.5454858 29.8173153,22.1372855 29.4989974,30.7036279 C29.2430303,37.5961606 29.5219688,44.485511 29.2036508,51.3653151 C28.9115859,57.7296111 28.9870633,64.0939072 28.9312756,70.4359282 C28.9854216,71.3997614 28.5082522,72.3191137 27.6776936,72.8511785 C26.9423519,73.359926 26.5141022,74.1884197 26.5338063,75.0641477 C26.5535104,75.9398757 27.0186175,76.7494689 27.7761424,77.2266321 C28.8000105,77.8980653 28.954247,78.8017953 28.9345573,79.848722 C28.8262635,85.8311603 28.6523372,91.8167808 28.6326475,97.8024012 C28.6129577,102.998849 28.4784109,108.18575 28.3044846,113.375834 C28.2716683,114.349571 28.3044846,115.285122 27.1230984,115.736987 C25.9417121,116.188852 25.0097297,116.102934 24.1696328,115.129197 C23.9423762,114.91399 23.6876159,114.72791 23.4115766,114.575503 L23.4115766,114.575503 Z" id="Path" fill="#947C65"></path>
            <path d="M16,32.333732 C15.3361783,35.7211792 14.6524419,39.1117658 13.9487909,42.4929342 C13.8093883,43.1679121 13.8492176,44.0124193 12.6842105,43.9998616 C11.5192034,43.9873039 11.6121385,43.0862869 11.4826932,42.4301456 C9.21021021,31.1930716 6.95321637,19.9497189 4.71171171,8.70008721 C4.27027027,6.50248475 3.79895685,4.30488229 3.38406828,2.07274607 C3.28986419,1.22945489 2.77559991,0.479403695 2,0.0540912424 C4.04457089,0.0540912424 6.08914177,0.0854855633 8.13039355,0.00386032902 C9.75343765,-0.0620677448 10.407302,0.719650845 10.6363205,2.1041404 C11.5225225,7.4662904 12.4419156,12.8221615 13.3380749,18.1843115 C14.0384068,22.3597562 14.7221432,26.5383403 15.4324324,30.7106456 C15.541963,31.2694645 15.6116643,31.8565383 16,32.333732 Z" id="Path" fill="#947C65"></path>
            <path d="M10,116.450734 C10.4739884,115.754556 10.9393064,115.050973 11.4248555,114.365904 C12.7312139,112.514368 12.734104,112.514368 14,114.554761 C13.6869652,114.825458 13.4023632,115.146549 13.1531792,115.510154 C12.3150289,117.098772 11.2861272,117.424642 10,116.450734 Z" id="Path" fill="#927C64"></path>
            <path d="M11.0897146,69.8795229 L11.0897146,71.2169433 C12.3097603,73.0100044 11.9978947,75.0226909 11.8608109,76.9567056 C11.7305813,78.7530447 11.5797891,80.5428278 11.5832162,82.3457229 C11.6117939,83.3839208 11.3274576,84.4080593 10.7641407,85.2959149 C6.13756322,90.012944 6.12385484,96.8278874 10.7298697,101.725206 C11.07009,102.094721 11.292489,102.549744 11.3707364,103.036402 C11.576362,106.225888 12.1418326,109.441597 10.81212,112.542577 C9.34875068,114.142236 7.87510008,115.73534 6.42886624,117.351389 C5.97991688,117.852922 5.50697785,118.164331 4.80442349,117.908648 C4.16355684,117.675911 4.29378642,117.118652 4.28693224,116.649899 C4.05845928,104.755162 3.83798287,92.8593329 3.62550301,80.9624107 C3.62550301,80.1461909 3.81399321,79.6249903 4.6741939,79.3496391 C7.07315999,78.5760332 6.23694896,76.6157945 6.31577213,75.0325248 C6.37745983,73.7770543 5.58922811,73.1706259 4.30406771,73.0657302 C3.32049161,72.9870584 3.59123207,72.2134525 3.57752369,71.675862 C3.33534235,62.497487 3.10686939,53.3311314 2.89210481,44.176795 C2.62479145,33.1234092 2.37232882,22.0569114 2.13471695,10.9773016 C1.87768486,9.15801654 2.07645634,7.33217552 2.02847702,5.50961249 C2.02847702,5.21787128 2.10730019,4.97857794 2.49113476,5.00152387 C3.65406213,11.1204405 4.81356241,17.2306158 5.96963559,23.3320499 C6.99776392,28.7472911 7.87852718,34.1887563 9.01974962,39.5843295 C9.55381907,41.9703946 9.21506709,44.459515 8.06016318,46.6352883 C7.52210936,50.4639819 9.033458,53.8075327 10.7572865,57.1019138 C11.829967,60.5798623 12.0424469,64.1430386 11.8779464,67.7389947 C11.8134213,68.5057521 11.5418118,69.2433372 11.0897146,69.8795229 L11.0897146,69.8795229 Z" id="Path" fill="#BC9B79"></path>
            <path d="M15.268922,57.726676 C15.6304188,56.9995743 16.0850375,56.3308865 16.6194149,55.7402682 C19.9250008,51.7355852 20.0400063,47.6211363 16.9282867,43.4040033 C16.5076952,42.8303882 16.6259866,42.3205081 16.7278486,41.7575155 C18.8899515,29.8673956 21.0564357,17.9772757 23.2273009,6.08715574 C24.1539165,6.19692159 23.9140479,6.98652753 23.9961947,7.59201011 C23.8811892,14.9038319 23.4671695,22.2014904 23.0827226,29.5026897 C22.7344203,36.1346714 22.3171147,42.7631123 21.9720983,49.3950941 C21.6829417,55.0285607 21.3149242,60.6584864 20.9863371,66.291953 C20.937049,67.0673956 21.0060523,68.0411249 19.8724269,68.0871557 C18.2097763,65.0207937 16.3006854,62.1066874 14.9961947,58.8207937 C15.1769176,58.4844145 14.8713316,57.9957794 15.268922,57.726676 Z" id="Path" fill="#BC9B79"></path>
            <path d="M17.8953053,72 C18.9767513,73.3974659 19.7257138,74.7790514 19.2952354,76.6592782 C18.9207541,78.2917724 18.9102546,80.1084781 21.3356334,80.7881547 C22.0006002,80.9755421 22.0110996,81.5948736 21.9971003,82.1348036 C21.8407748,89.4884383 21.6821161,96.8388971 21.5211241,104.18618 C21.4406281,108.153077 21.4091297,112.126327 21.3251339,116.090048 C21.3251339,116.72526 21.6086197,117.560563 20.6811661,117.903578 C19.6872158,118.272 19.2007401,117.503394 18.682766,116.96664 C17.100845,115.340498 15.5574222,113.688948 14,112.046925 C14.1160894,111.553151 14.4433607,111.121365 14.9099545,110.846375 C17.0098496,109.868149 18.1262938,108.492915 17.8988051,106.183921 C17.5488226,102.499692 17.9443029,98.8154643 18.3607821,95.1407643 C18.4258863,94.2929386 18.3918649,93.4412399 18.2592871,92.5999173 C17.9093046,89.7668728 17.5348233,86.9306523 17.6958153,84.0690234 C17.7539153,82.8437581 17.4468139,81.6269508 16.8068597,80.5467742 C15.6904155,78.5966741 15.8899055,76.5322359 16.0683966,74.486854 C16.1302655,73.41705 16.830923,72.4632897 17.8953053,72 Z" id="Path" fill="#786757"></path>
            <path d="M19,68.9932115 C19.7109635,67.0789461 19.4285714,65.0581533 19.5813953,63.0954664 C20.1694352,55.4384049 20.5780731,47.7652029 21.0465116,40.0984572 C21.6024363,31.3094074 22.166113,22.5192816 22.7375415,13.7280798 C22.923588,12.6660337 22.7375415,11.6039877 22.7375415,10.5419416 L23.7342193,6 L24,6.01936862 L22.3189369,73.8353667 L21.986711,74 C20.9900332,72.3235383 19.9944629,70.6546088 19,68.9932115 Z" id="Path" fill="#776756"></path>
            <path d="M18.3922064,71.3106343 C18.346945,72.6103026 17.3123994,73.5850538 17.3608937,75.0016923 C17.4352517,76.9706898 17.4902119,78.877953 18.492428,80.6390036 C18.8636857,81.363575 19.0366267,82.1743072 18.993536,82.9881541 C18.993536,91.2118053 18.993536,99.4354566 18.993536,107.655859 C18.993536,110.186963 18.0236495,111.463887 15.7605809,112 C15.469615,111.52887 15.7088537,111.174711 16.041848,110.869289 C16.5170924,110.4339 17.1863141,110.056996 17.0860925,109.332431 C16.8888823,107.88655 17.1313539,106.408177 16.7272345,104.988289 C16.5882174,104.500914 16.1323708,104.43593 15.686223,104.383944 C14.9988968,104.384989 14.4308431,103.845486 14.393041,103.155757 L15.7282514,102.028295 C16.837155,101.138022 18.1465018,100.380965 17.9460586,98.6264131 C18.3534109,96.4234753 18.8933144,94.269275 18.41807,91.9558654 C17.9428256,89.6424558 17.2121778,87.5857307 15.39849,86.0488729 C14.8435737,85.6254997 14.5180993,84.9652729 14.5191262,84.2650782 C14.4092057,81.1881135 14.2766546,78.1143979 14.0859102,75.0439315 C14.027717,74.0496852 14.2087625,73.2828809 15.0202342,72.6330468 C16.1032742,71.762269 16.1420696,70.8265078 14.894149,70.0337101 C14.3733587,69.7516122 14.0518768,69.2018508 14.0600466,68.6073242 C14.0180182,67.1127056 13.9177966,65.6213362 14.1344045,64 L18.3922064,71.3106343 Z" id="Path" fill="#BB9C79"></path>
            <path d="M14.8919368,88.1263332 C17.8157039,91.5938064 17.6843194,96.6415903 14.5839649,99.9585986 C13.5768967,100.178832 13.179613,99.4819291 12.8901194,98.7789923 C11.4888472,95.4151535 11.8337757,92.0965681 13.2843234,88.8383206 C13.5892156,88.189688 14.0912098,87.7793902 14.8919368,88.1263332 Z" id="Path" fill="#947C64"></path>
            <path d="M15,88.7920226 C14.6321171,88.8629467 14.3270017,89.1220533 14.1941423,89.4763635 C12.6582725,93.0707523 12.2506033,96.6971197 13.9065618,100.377851 C14.057641,100.778319 14.336893,101.11606 14.6997785,101.337207 C13.8876004,102.363718 13.1196655,102.079109 12.3264487,101.289239 C9.34003507,98.3791913 9.20098512,91.8555675 12.0704704,88.8431882 C13.0469803,87.8166768 14.0045288,87.6439927 15,88.7920226 Z" id="Path" fill="#63564B"></path>
            <path d="M13.7633165,104.087232 C14.8613873,104.692227 15.9301762,104.495251 16.91844,104 C17.7493135,105.671474 17.1526951,107.435807 17.8847422,109.065072 C18.2507658,109.847344 17.6834293,110.322898 17.0465482,110.753429 C16.5084935,111.122054 15.8825932,111.417517 15.2969554,111.746746 L14.1988846,112 C12.4529521,110.888498 13.0459103,109.186071 12.3687666,107.793176 C12.1360334,107.653461 12,107.439109 12,107.2121 C12,106.985091 12.1360334,106.770739 12.3687666,106.631024 C12.8445973,105.786845 12.6396241,104.720366 13.7633165,104.087232 Z" id="Path" fill="#BC9B79"></path>
            <path d="M10.0008407,51.140215 C10.0427425,49.1594694 11.2299595,47.9257286 13.0247522,48.0034712 C13.8476814,47.9977636 14.6357688,48.3246107 15.1991693,48.9052772 C15.7625698,49.4859437 16.0502084,50.2677893 15.9927948,51.0624724 C15.9648602,52.6612654 14.442429,54.0809124 12.8501615,53.9964096 C11.0204506,53.9017664 9.96592253,52.8437914 10.0008407,51.140215 Z" id="Path" fill="#63564B"></path>
            <path d="M10,86 C10.1032948,81.3333333 10.2108935,76.6666667 10.3227962,72 C11.6494884,72.8855814 12.1336826,74.0674419 11.9690566,75.7083721 C11.7140476,78.2772093 11.6462604,80.8655814 11.5655614,83.4474419 C11.513914,84.6455814 11.1459264,85.5376744 10,86 Z" id="Path" fill="#937C64"></path>
            <path d="M14,106.573374 L14,107.822995 C13.0734745,108.449319 13.252802,109.393343 13.0622665,110.198185 C12.8938117,111.308182 12.1833656,112.317274 11.0896638,113 L11,103 C13.0323786,103.617247 12.8418431,105.456884 14,106.573374 Z" id="Path" fill="#937C65"></path>
            <path d="M10.3341614,72 L10,60 C12.5028689,63.1723077 11.9180865,66.8646154 11.9849188,70.4184615 C11.9982852,71.2953846 10.8821861,71.48 10.3341614,72 Z" id="Path" fill="#937C64"></path>
            <path d="M8.11679778,48 C8.09924359,47.952123 8.09110353,47.9018539 8.09274409,47.8514559 C9.84866416,41.6621184 7.17526726,35.8070052 6.52581737,29.8002532 C6.38836766,28.531439 5.89354869,27.2997609 6.02068968,26 C7.2749183,29.9054719 7.73881108,33.950204 8.72501276,37.9051906 C9.0170934,39.1090167 9.09269074,40.3654522 9.50847612,41.5321424 C10.3778455,43.955268 10.1991609,46.1246307 8.11679778,48 Z" id="Path" fill="#776756"></path>
            <path d="M13.4880568,74 C12.7030602,73.8751952 12.0475881,73.4323394 12.0004883,72.6513029 C11.9801345,71.8074989 12.5984115,71.0907485 13.4174071,71.0087107 C14.2495035,70.9080616 14.9010507,71.6971501 14.9874003,72.4701347 C15.1169247,73.4283135 14.2220286,73.7181827 13.4880568,74 Z" id="Path" fill="#504842"></path>
            <path d="M18.220673,98.1722081 C18.6440369,97.9086263 19.0253876,97.902567 18.7797719,98.4751757 C18.4953747,99.1386748 20.0207776,100.786819 17.6260244,100.420228 C17.4127265,100.386901 17.0798526,101.207944 16.7534423,101.592712 C16.2848333,102.150173 15.9616548,102.198648 16.003668,101.33822 C16.8601776,100.359458 17.6033495,99.2981659 18.220673,98.1722081 L18.220673,98.1722081 Z" id="Path" fill="#BC9B79"></path>
            <path d="M2.99171104,7.88767812 C2,9.89941324 2.99171104,11.9748533 2.49585552,14 C1.9008289,11.4551551 2.20330076,8.89354568 2,6 C2.70139738,6.50983051 3.06025594,7.19290194 2.99171104,7.88767812 L2.99171104,7.88767812 Z" id="Path" fill="#9E8771"></path>
            <path d="M24,77.5796767 L23.6956522,78 C23.0702341,77.7967667 22.1839465,77.8244804 22,77 C22.7658863,77.2424942 23.2408027,77.6812933 24,77.5796767 Z" id="Path" fill="#857665"></path>
            <polygon id="Path" fill="#3F3A39" points="13.3 68.9922078 13.3 66 13.7 66 13.7 69"></polygon>
        </g>
    </g>
</svg>