<?xml version="1.0" encoding="iso-8859-1"?>
<!-- Generator: Adobe Illustrator 19.0.0, SVG Export Plug-In . SVG Version: 6.00 Build 0)  -->
<svg version="1.1" id="Layer_1" xmlns="http://www.w3.org/2000/svg" xmlns:xlink="http://www.w3.org/1999/xlink" x="0px" y="0px"
	 viewBox="0 0 464 464" style="enable-background:new 0 0 464 464;" xml:space="preserve">
<g>
	<path style="fill:#e82533;" d="M316.424,0.4c-6.722-1.693-13.245,2.15-15.248,8.384l-64.302,200.053
		C243.311,210.908,248,216.874,248,224c0,8.836-7.164,16-16,16s-16-7.164-16-16c0-7.126,4.689-13.092,11.126-15.163L162.824,8.784
		c-2.003-6.233-8.526-10.077-15.248-8.384c-6.429,1.619-10.216,8.362-9.2,14.913l47.617,306.862c0.52,3.352,3.406,5.825,6.798,5.825
		H200c4.418,0,8,3.582,8,8s-3.582,8-8,8h-10.621l16.815,108.366c0.858,5.529,4.875,10.366,10.375,11.398
		c8.238,1.546,15.43-4.732,15.43-12.69v-0.404c0,5.62,3.395,10.951,8.747,12.665c8.034,2.573,15.766-2.636,16.952-10.279
		L274.621,344H264c-4.418,0-8-3.582-8-8s3.582-8,8-8h7.209c3.392,0,6.278-2.473,6.798-5.825l47.617-306.862
		C326.641,8.762,322.853,2.02,316.424,0.4z M232,408c-8.836,0-16-16.118-16-36s7.164-36,16-36s16,16.118,16,36S240.836,408,232,408z
		 M232,320c-8.836,0-16-7.164-16-16c0-8.837,7.164-16,16-16s16,7.163,16,16C248,312.836,240.836,320,232,320z"/>
	<path style="fill:#e82533;" d="M216,224c0-7.126,4.689-13.092,11.126-15.163L162.824,8.784c-2.003-6.233-8.526-10.077-15.248-8.384
		c-6.429,1.619-10.216,8.362-9.2,14.913l47.617,306.862c0.52,3.352,3.406,5.825,6.798,5.825H200c4.418,0,8,3.582,8,8s-3.582,8-8,8
		h-10.621l16.815,108.366c0.858,5.529,4.875,10.366,10.375,11.398c8.238,1.546,15.43-4.732,15.43-12.69V408
		c-8.836,0-16-16.118-16-36s7.164-36,16-36v-16c-8.836,0-16-7.164-16-16c0-8.837,7.164-16,16-16v-48
		C223.164,240,216,232.836,216,224z"/>
	<path style="fill:#AFBBD0;" d="M256,223.999c0-13.234-10.766-24-24-24s-24,10.766-24,24c0,12.59,9.744,22.938,22.086,23.917
		l-37.407,84.857c-1.781,4.043,0.051,8.766,4.094,10.547c1.051,0.461,2.145,0.684,3.223,0.684c3.074,0,6.004-1.785,7.324-4.777
		L253,235.603C254.909,232.161,256,228.206,256,223.999z M232,231.999c-4.41,0-8-3.59-8-8s3.59-8,8-8s8,3.59,8,8
		c0,0.73-0.107,1.434-0.291,2.106c-0.02,0.044-0.045,0.084-0.065,0.128l-0.912,2.069C237.309,230.522,234.826,231.999,232,231.999z"
		/>
	<circle style="fill:#AFBBD0;" cx="264" cy="336" r="8"/>
	<path style="fill:#A2B0C4;" d="M238.758,228.246c-1.416,2.25-3.91,3.755-6.758,3.755c-3.669,0-6.638-2.535-7.577-5.91
		l-7.312,16.586c3.636,2.906,8.081,4.834,12.976,5.238L238.758,228.246z"/>
</g>
<g>
</g>
<g>
</g>
<g>
</g>
<g>
</g>
<g>
</g>
<g>
</g>
<g>
</g>
<g>
</g>
<g>
</g>
<g>
</g>
<g>
</g>
<g>
</g>
<g>
</g>
<g>
</g>
<g>
</g>
</svg>
