<svg id="Ebene_1" data-name="Ebene 1" xmlns="http://www.w3.org/2000/svg" width="56px" height="132px" viewBox="0 0 49.24 114.06"><defs><style>.cls-1{fill:#a42222;}.cls-1,.cls-2{stroke:#851c1c;}.cls-1,.cls-2,.cls-3{stroke-miterlimit:10;}.cls-2{fill:#851c1c;}.cls-3{fill:#786562;stroke:#786562;}</style></defs><title>wäscheklammer_v02_2</title><path class="cls-1" d="M23.79,100l7.37.11c1.19.12,1.77-.22,1.77-1.42V12.45c0-1.19-.17-2-1.36-1.93H25.82a2.29,2.29,0,0,0-2.16,2.08L22.29,98.27A1.68,1.68,0,0,0,23.79,100Z"/><polygon class="cls-2" points="17.81 17.17 20.35 46.26 22.29 98.27 20.57 97.56 17.81 17.17"/><polygon class="cls-3" points="20.82 72.55 21.2 71.31 16.58 69.77 15.75 70.69 20.82 72.55"/><path class="cls-1" d="M22.29,82.16c0-1.19,1.77-65.71.58-65.61l-5.06.62c-1.11.09,3.07,35.49,3.05,36.6Z"/><rect class="cls-3" x="18.45" y="51.16" width="1.09" height="20.07" transform="translate(20.07 -2.87) rotate(18.21)"/><polygon class="cls-3" points="33.41 72.97 33.45 71.67 21.2 71.31 20.96 72.97 33.41 72.97"/></svg>